<svg width="75" height="74" viewBox="0 0 75 74" fill="none" xmlns="http://www.w3.org/2000/svg">
<rect x="0.666504" width="74" height="74" rx="37" fill="url(#paint0_linear_11_86874)" fill-opacity="0.1"/>
<rect x="1.1665" y="0.5" width="73" height="73" rx="36.5" stroke="url(#paint1_linear_11_86874)" stroke-opacity="0.2"/>
<path d="M35.5454 41.1814C34.5908 41.1814 34.0316 40.644 34.0316 39.6796V38.5637C30.0221 38.2881 26.0263 37.4615 21.8804 35.877V33.6038C26.9809 35.8633 32.0951 36.6624 37.6593 36.6624C43.2372 36.6624 48.3513 35.8633 53.4518 33.6038V35.877C49.3059 37.4615 45.31 38.2881 41.3006 38.5637V39.6796C41.3006 40.644 40.7414 41.1814 39.7867 41.1814H35.5454ZM26.0944 50.3432H49.2377C52.0608 50.3432 53.4518 48.9656 53.4518 46.1412V32.7359C53.4518 29.9115 52.0608 28.5338 49.2377 28.5338H26.0944C23.2851 28.5338 21.8804 29.9115 21.8804 32.7359V46.1412C21.8804 48.9656 23.2851 50.3432 26.0944 50.3432ZM30.7449 29.7324H32.8588V27.2938C32.8588 26.2467 33.4725 25.6543 34.5362 25.6543H40.7959C41.8597 25.6543 42.4598 26.2467 42.4598 27.2938V29.7048H44.5736V27.4454C44.5736 24.8552 43.2234 23.6428 40.7551 23.6428H34.5635C32.2314 23.6428 30.7449 24.8552 30.7449 27.4454V29.7324Z" fill="#CAFF33"/>
<defs>
<linearGradient id="paint0_linear_11_86874" x1="37.6665" y1="-49" x2="37.6665" y2="191" gradientUnits="userSpaceOnUse">
<stop stop-color="#CAFF33"/>
<stop offset="0.467671" stop-color="#CAFF33" stop-opacity="0"/>
</linearGradient>
<linearGradient id="paint1_linear_11_86874" x1="37.6665" y1="-128.5" x2="37.6665" y2="141" gradientUnits="userSpaceOnUse">
<stop stop-color="#CAFF33"/>
<stop offset="0.716291" stop-color="#CAFF33" stop-opacity="0"/>
</linearGradient>
</defs>
</svg>
