<svg width="74" height="74" viewBox="0 0 74 74" fill="none" xmlns="http://www.w3.org/2000/svg">
<rect width="74" height="74" rx="37" fill="url(#paint0_linear_53_624)" fill-opacity="0.1"/>
<rect x="0.5" y="0.5" width="73" height="73" rx="36.5" stroke="url(#paint1_linear_53_624)" stroke-opacity="0.2"/>
<path fill-rule="evenodd" clip-rule="evenodd" d="M30.625 27.4375C30.625 25.0903 32.5278 23.1875 34.875 23.1875H39.125C41.4722 23.1875 43.375 25.0903 43.375 27.4375V27.7279C44.696 27.8488 46.0063 28.0069 47.3049 28.2012C49.3648 28.5095 50.8125 30.3015 50.8125 32.3331V36.6301C50.8125 38.3459 49.7732 39.9626 48.0694 40.529C44.5885 41.6863 40.8663 42.3125 37.0001 42.3125C33.1337 42.3125 29.4115 41.6863 25.9305 40.529C24.2268 39.9626 23.1875 38.3458 23.1875 36.6301V32.3331C23.1875 30.3015 24.6352 28.5095 26.6951 28.2013C27.9937 28.0069 29.304 27.8488 30.625 27.7279V27.4375ZM41.25 27.4375V27.5662C39.8442 27.4808 38.4271 27.4375 37 27.4375C35.5729 27.4375 34.1558 27.4808 32.75 27.5662V27.4375C32.75 26.2639 33.7014 25.3125 34.875 25.3125H39.125C40.2986 25.3125 41.25 26.2639 41.25 27.4375ZM37 39.125C37.5868 39.125 38.0625 38.6493 38.0625 38.0625C38.0625 37.4757 37.5868 37 37 37C36.4132 37 35.9375 37.4757 35.9375 38.0625C35.9375 38.6493 36.4132 39.125 37 39.125Z" fill="#CAFF33"/>
<path d="M24.25 46.0666V42.1056C24.566 42.2789 24.903 42.4268 25.2601 42.5455C28.9546 43.7738 32.903 44.4375 37.0001 44.4375C41.097 44.4375 45.0454 43.7738 48.7398 42.5455C49.0969 42.4268 49.434 42.2789 49.75 42.1056V46.0666C49.75 48.1235 48.2664 49.9306 46.1756 50.2082C43.1732 50.6068 40.1103 50.8125 37 50.8125C33.8897 50.8125 30.8268 50.6068 27.8244 50.2082C25.7336 49.9306 24.25 48.1235 24.25 46.0666Z" fill="#CAFF33"/>
<defs>
<linearGradient id="paint0_linear_53_624" x1="37" y1="-49" x2="37" y2="191" gradientUnits="userSpaceOnUse">
<stop stop-color="#CAFF33"/>
<stop offset="0.467671" stop-color="#CAFF33" stop-opacity="0"/>
</linearGradient>
<linearGradient id="paint1_linear_53_624" x1="37" y1="-128.5" x2="37" y2="141" gradientUnits="userSpaceOnUse">
<stop stop-color="#CAFF33"/>
<stop offset="0.716291" stop-color="#CAFF33" stop-opacity="0"/>
</linearGradient>
</defs>
</svg>
