<svg width="74" height="74" viewBox="0 0 74 74" fill="none" xmlns="http://www.w3.org/2000/svg">
<rect width="74" height="74" rx="37" fill="url(#paint0_linear_53_613)" fill-opacity="0.1"/>
<rect x="0.5" y="0.5" width="73" height="73" rx="36.5" stroke="url(#paint1_linear_53_613)" stroke-opacity="0.2"/>
<path fill-rule="evenodd" clip-rule="evenodd" d="M22.125 33.9291V36.4688C22.125 37.9358 23.3142 39.125 24.7812 39.125H49.2188C50.6858 39.125 51.875 37.9358 51.875 36.4688V33.9291C51.875 32.9146 51.5121 31.9336 50.8518 31.1633L46.1983 25.7341C45.3909 24.7921 44.2121 24.25 42.9715 24.25H31.0285C29.7879 24.25 28.6091 24.7921 27.8017 25.7341L23.1482 31.1633C22.4879 31.9336 22.125 32.9146 22.125 33.9291ZM31.0285 26.375C30.4082 26.375 29.8188 26.6461 29.4151 27.1171L25.4976 31.6875H29.9816C31.4026 31.6875 32.7296 32.3977 33.5178 33.58L33.7503 33.9287C34.1444 34.5199 34.8079 34.875 35.5184 34.875H38.4816C39.1921 34.875 39.8556 34.5199 40.2497 33.9287L40.4822 33.58C41.2704 32.3977 42.5974 31.6875 44.0184 31.6875H48.5024L44.5849 27.1171C44.1812 26.6461 43.5918 26.375 42.9715 26.375H31.0285Z" fill="#CAFF33"/>
<path d="M23.9844 41.25C22.9575 41.25 22.125 42.0825 22.125 43.1094V45.5C22.125 47.8472 24.0278 49.75 26.375 49.75H47.625C49.9722 49.75 51.875 47.8472 51.875 45.5V43.1094C51.875 42.0825 51.0425 41.25 50.0156 41.25H44.0184C42.5974 41.25 41.2704 41.9602 40.4822 43.1425L40.2497 43.4912C39.8556 44.0824 39.1921 44.4375 38.4816 44.4375H35.5184C34.8079 44.4375 34.1444 44.0824 33.7503 43.4912L33.5178 43.1425C32.7296 41.9602 31.4026 41.25 29.9816 41.25H23.9844Z" fill="#CAFF33"/>
<defs>
<linearGradient id="paint0_linear_53_613" x1="37" y1="-49" x2="37" y2="191" gradientUnits="userSpaceOnUse">
<stop stop-color="#CAFF33"/>
<stop offset="0.467671" stop-color="#CAFF33" stop-opacity="0"/>
</linearGradient>
<linearGradient id="paint1_linear_53_613" x1="37" y1="-128.5" x2="37" y2="141" gradientUnits="userSpaceOnUse">
<stop stop-color="#CAFF33"/>
<stop offset="0.716291" stop-color="#CAFF33" stop-opacity="0"/>
</linearGradient>
</defs>
</svg>
