<svg width="74" height="74" viewBox="0 0 74 74" fill="none" xmlns="http://www.w3.org/2000/svg">
<rect width="74" height="74" rx="37" fill="url(#paint0_linear_53_602)" fill-opacity="0.1"/>
<rect x="0.5" y="0.5" width="73" height="73" rx="36.5" stroke="url(#paint1_linear_53_602)" stroke-opacity="0.2"/>
<path d="M37 21.0625C30.5452 21.0625 25.3125 26.2952 25.3125 32.75C25.3125 37.0719 27.6589 40.8446 31.1423 42.8656C32.1134 43.4291 32.7215 44.2936 32.749 45.1636C32.7642 45.6435 33.0993 46.0536 33.5666 46.164C34.0644 46.2817 34.5716 46.3743 35.0869 46.4405C35.5454 46.4994 35.9378 46.1322 35.9378 45.67V39.0668C35.4854 39.0168 35.0422 38.9352 34.6104 38.824C34.0421 38.6778 33.7 38.0985 33.8463 37.5302C33.9926 36.9619 34.5718 36.6198 35.1401 36.7661C35.7334 36.9188 36.3565 37.0003 37.0003 37.0003C37.644 37.0003 38.2671 36.9188 38.8604 36.7661C39.4287 36.6198 40.008 36.9619 40.1542 37.5302C40.3005 38.0985 39.9584 38.6778 39.3901 38.824C38.9583 38.9352 38.5151 39.0168 38.0628 39.0668V45.6699C38.0628 46.1321 38.4552 46.4994 38.9136 46.4404C39.4287 46.3742 39.9358 46.2817 40.4334 46.164C40.9007 46.0536 41.2358 45.6435 41.251 45.1636C41.2785 44.2936 41.8866 43.4291 42.8577 42.8656C46.3411 40.8446 48.6875 37.0719 48.6875 32.75C48.6875 26.2952 43.4548 21.0625 37 21.0625Z" fill="#CAFF33"/>
<path fill-rule="evenodd" clip-rule="evenodd" d="M32.7686 48.1912C32.878 47.6147 33.434 47.2359 34.0105 47.3453C34.9781 47.5288 35.9773 47.625 37 47.625C38.0227 47.625 39.0219 47.5288 39.9895 47.3453C40.566 47.2359 41.122 47.6147 41.2314 48.1912C41.3407 48.7677 40.962 49.3237 40.3855 49.4331C39.2881 49.6413 38.1563 49.75 37 49.75C35.8438 49.75 34.7119 49.6413 33.6145 49.4331C33.038 49.3237 32.6593 48.7677 32.7686 48.1912Z" fill="#CAFF33"/>
<path fill-rule="evenodd" clip-rule="evenodd" d="M33.8183 51.654C33.8793 51.0703 34.4019 50.6467 34.9855 50.7078C35.6472 50.777 36.3193 50.8125 37 50.8125C37.6807 50.8125 38.3528 50.777 39.0145 50.7078C39.5981 50.6467 40.1207 51.0703 40.1817 51.654C40.2428 52.2376 39.8192 52.7602 39.2355 52.8212C38.5005 52.8981 37.7547 52.9375 37 52.9375C36.2453 52.9375 35.4995 52.8981 34.7645 52.8212C34.1808 52.7602 33.7572 52.2376 33.8183 51.654Z" fill="#CAFF33"/>
<defs>
<linearGradient id="paint0_linear_53_602" x1="37" y1="-49" x2="37" y2="191" gradientUnits="userSpaceOnUse">
<stop stop-color="#CAFF33"/>
<stop offset="0.467671" stop-color="#CAFF33" stop-opacity="0"/>
</linearGradient>
<linearGradient id="paint1_linear_53_602" x1="37" y1="-128.5" x2="37" y2="141" gradientUnits="userSpaceOnUse">
<stop stop-color="#CAFF33"/>
<stop offset="0.716291" stop-color="#CAFF33" stop-opacity="0"/>
</linearGradient>
</defs>
</svg>
