<svg width="74" height="74" viewBox="0 0 74 74" fill="none" xmlns="http://www.w3.org/2000/svg">
<rect width="74" height="74" rx="37" fill="url(#paint0_linear_53_592)" fill-opacity="0.1"/>
<rect x="0.5" y="0.5" width="73" height="73" rx="36.5" stroke="url(#paint1_linear_53_592)" stroke-opacity="0.2"/>
<path fill-rule="evenodd" clip-rule="evenodd" d="M23.1875 23.1875C22.6007 23.1875 22.125 23.6632 22.125 24.25C22.125 24.8368 22.6007 25.3125 23.1875 25.3125H24.25V40.1875C24.25 42.5347 26.1528 44.4375 28.5 44.4375H30.2134L28.5545 49.414C28.369 49.9707 28.6698 50.5724 29.2265 50.758C29.7832 50.9435 30.3849 50.6427 30.5705 50.086L31.0366 48.6875H42.9634L43.4295 50.086C43.6151 50.6427 44.2168 50.9435 44.7735 50.758C45.3302 50.5724 45.631 49.9707 45.4455 49.414L43.7866 44.4375H45.5C47.8472 44.4375 49.75 42.5347 49.75 40.1875V25.3125H50.8125C51.3993 25.3125 51.875 24.8368 51.875 24.25C51.875 23.6632 51.3993 23.1875 50.8125 23.1875H23.1875ZM31.745 46.5625L32.4533 44.4375H41.5467L42.255 46.5625H31.745ZM42.3125 29.5625C42.3125 28.9757 41.8368 28.5 41.25 28.5C40.6632 28.5 40.1875 28.9757 40.1875 29.5625V38.0625C40.1875 38.6493 40.6632 39.125 41.25 39.125C41.8368 39.125 42.3125 38.6493 42.3125 38.0625V29.5625ZM38.0625 32.75C38.0625 32.1632 37.5868 31.6875 37 31.6875C36.4132 31.6875 35.9375 32.1632 35.9375 32.75V38.0625C35.9375 38.6493 36.4132 39.125 37 39.125C37.5868 39.125 38.0625 38.6493 38.0625 38.0625V32.75ZM33.8125 35.9375C33.8125 35.3507 33.3368 34.875 32.75 34.875C32.1632 34.875 31.6875 35.3507 31.6875 35.9375V38.0625C31.6875 38.6493 32.1632 39.125 32.75 39.125C33.3368 39.125 33.8125 38.6493 33.8125 38.0625V35.9375Z" fill="#CAFF33"/>
<defs>
<linearGradient id="paint0_linear_53_592" x1="37" y1="-49" x2="37" y2="191" gradientUnits="userSpaceOnUse">
<stop stop-color="#CAFF33"/>
<stop offset="0.467671" stop-color="#CAFF33" stop-opacity="0"/>
</linearGradient>
<linearGradient id="paint1_linear_53_592" x1="37" y1="-128.5" x2="37" y2="141" gradientUnits="userSpaceOnUse">
<stop stop-color="#CAFF33"/>
<stop offset="0.716291" stop-color="#CAFF33" stop-opacity="0"/>
</linearGradient>
</defs>
</svg>
